HIERARCHY
ROOT Hips
{
  OFFSET 11.358 56.5898 -174.235
  CHANNELS 6 Xposition Yposition Zposition Zrotation Xrotation Yrotation
  JOINT RightUpLeg
  {
    OFFSET -8.9458 -8.66707 0.101652
    CHANNELS 3 Zrotation Xrotation Yrotation
    JOINT RightLeg
    {
      OFFSET 0 -44.4227 1.3727
      CHANNELS 3 Zrotation Xrotation Yrotation
      JOINT RightFoot
      {
        OFFSET 0.253549 -42.0924 -1.46059
        CHANNELS 3 Zrotation Xrotation Yrotation
        JOINT RightToes
        {
          OFFSET 0.04 -4.41509 8.4991
          CHANNELS 3 Zrotation Xrotation Yrotation
          End Site
          {
            OFFSET -0.08 -0.137448 9.77979
          }
        }
      }
    }
  }
  JOINT LeftUpLeg
  {
    OFFSET 8.9458 -8.66707 0.101652
    CHANNELS 3 Zrotation Xrotation Yrotation
    JOINT LeftLeg
    {
      OFFSET 0 -44.4227 1.3727
      CHANNELS 3 Zrotation Xrotation Yrotation
      JOINT LeftFoot
      {
        OFFSET -1.67456 -37.7623 -4.877
        CHANNELS 3 Zrotation Xrotation Yrotation
        JOINT LeftToes
        {
          OFFSET -2.01565 -4.28318 -2.08687
          CHANNELS 3 Zrotation Xrotation Yrotation
          End Site
          {
            OFFSET 0.08 -0.047448 9.77979
          }
        }
      }
    }
  }
  JOINT Spine
  {
    OFFSET 0 11.8905 0
    CHANNELS 3 Zrotation Xrotation Yrotation
    JOINT Spine1
    {
      OFFSET 0 25.6574 0.127663
      CHANNELS 3 Zrotation Xrotation Yrotation
      JOINT HEad
      {
        OFFSET 0 8.73416 0.011341
        CHANNELS 3 Zrotation Xrotation Yrotation
        End Site
        {
          OFFSET -0.29 12.7742 2.51395
        }
      }
      JOINT LeftShoulder1
      {
        OFFSET 8.99 -0.362252 -0.22
        CHANNELS 3 Zrotation Xrotation Yrotation
        JOINT LeftArm
        {
          OFFSET 10.2827 -0.00338 0.322123
          CHANNELS 3 Zrotation Xrotation Yrotation
          JOINT LeftForeArm
          {
            OFFSET 32.7669 0.099144 -1.42434
            CHANNELS 3 Zrotation Xrotation Yrotation
            JOINT LeftHand
            {
              OFFSET 27.5643 0.085362 1.02216
              CHANNELS 3 Zrotation Xrotation Yrotation
              End Site
              {
                OFFSET 16.7443 -0.6 1.50291
              }
            }
          }
        }
      }
      JOINT RightShoulder
      {
        OFFSET -8.99 -0.362252 -0.22
        CHANNELS 3 Zrotation Xrotation Yrotation
        JOINT RightArm
        {
          OFFSET -10.2827 -0.00338 0.322123
          CHANNELS 3 Zrotation Xrotation Yrotation
          JOINT RightForeArm
          {
            OFFSET -32.8971 0.099144 -1.42434
            CHANNELS 3 Zrotation Xrotation Yrotation
            JOINT RightHand
            {
              OFFSET -27.4921 0.085362 1.02216
              CHANNELS 3 Zrotation Xrotation Yrotation
              End Site
              {
                OFFSET -16.6312 -0.6 1.50291
              }
            }
          }
        }
      }
    }
  }
}
MOTION
Frames:	15
Frame Time:	0.0166667
9.42894 62.1723 -177.334 -3.20885 -4.21447 -28.2267 -44.4452 -21.2212 -5.43764 34.208 77.0037 -25.2917 8.55309 -8.93746 1.23701 0.0462048 0.000533403 0.662642 13.7466 -65.8427 11.204 89.1522 53.3062 -71.7867 -13.0115 6.58518 -4.49428 -1.31003e-009 1.56027e-007 -4.82416e-009 -5.48374 26.9775 2.19723 0.75888 -0.765521 -0.0238729 -10.0147 -3.34675 37.2937 1.59028e-015 -9.54166e-015 -0 122.885 -49.2536 154.259 -116.239 54.9021 -33.5322 7.9188 25.6939 -4.66474 8.18309 2.41945 12.9404 82.2779 -22.1531 76.3281 56.461 59.968 70.8776 -8.02422 18.8339 0.815613 
9.92566 63.8718 -177.353 -4.0059 -4.32408 -30.702 -44.4757 -23.3336 -9.45592 30.9463 79.9967 -17.3421 1.37793 -6.01174 0.347479 0.0462048 0.000533403 0.662642 9.09417 -62.598 9.71248 90.8601 51.8358 -70.9381 -9.73744 4.37074 -3.44559 -1.31002e-009 1.56027e-007 -4.82416e-009 -5.63604 29.9721 1.30842 0.554986 -0.564142 -0.0154626 -10.0476 -5.61023 38.1049 -1.59028e-015 -3.18055e-015 3.18055e-015 122.238 -48.0115 155.222 -116.087 55.0431 -34.2977 7.67159 25.8102 -4.56584 7.66191 1.38943 13.8454 82.2184 -21.9124 75.9978 56.1661 59.9921 71.4205 -7.83681 18.9799 1.11973 
10.4495 65.6195 -177.301 -4.67077 -4.45258 -32.9831 -44.1419 -25.4546 -13.1148 27.5925 82.5088 -10.2228 -5.53221 -3.16128 -0.334462 0.0462048 0.000533403 0.662642 9.85974 -58.8872 10.9022 90.4045 50.212 -68.0392 -31.7646 3.88384 -2.81602 -1.31002e-009 1.56027e-007 -4.82416e-009 -5.78677 32.4598 0.660958 0.371532 -0.381891 -0.0068611 -10.1272 -7.40957 38.7612 1.59028e-015 -3.18055e-015 -0 122.234 -46.9618 156.365 -115.664 55.1648 -34.9641 7.48923 25.6985 -4.6953 7.08922 0.51236 14.7282 82.3445 -21.712 75.8516 56.021 59.8401 71.6389 -7.59116 19.1488 1.58171 
10.916 67.4033 -176.922 -5.12132 -4.57468 -34.9476 -42.894 -26.5409 -15.561 20.3838 83.3964 -0.776743 -11.7968 -0.901968 -0.75423 0.0462048 0.000533403 0.662642 7.95421 -56.0084 11.4736 88.3104 50.2479 -64.8076 -25.4735 2.17581 -2.24957 -1.31002e-009 1.56027e-007 -4.82416e-009 -5.92636 33.9416 0.243002 0.216276 -0.225922 0.00145267 -10.2452 -8.33841 39.2668 -1.59028e-015 0 -6.36111e-015 128.487 -46.81 160.953 -112.194 54.3983 -34.5844 7.25576 25.7097 -5.0808 6.56263 -0.0565366 15.6981 82.6581 -21.6444 75.9368 56.0168 59.3353 71.5093 -7.41993 19.6573 2.5089 
11.3883 69.0408 -176.445 -5.3811 -4.65366 -36.4999 -41.1645 -26.5947 -16.699 6.14149 81.1742 14.06 -15.8987 0.610195 -0.910781 0.0462048 0.000533403 0.662642 8.50776 -53.2534 13.3064 84.6856 51.4197 -60.8021 -27.5304 1.11052 -1.73963 -1.31003e-009 1.56027e-007 -4.82417e-009 -5.97918 34.4873 0.061514 0.0969779 -0.104318 0.00832663 -10.4109 -8.48197 39.5428 3.18055e-015 3.18055e-015 -3.18055e-015 137.819 -45.8491 166.573 -108.713 52.6687 -32.494 6.85501 25.5437 -4.52299 6.04535 -0.220727 16.5051 83.2293 -21.5063 76.4846 56.107 58.5524 70.9943 -6.95845 19.8926 2.81173 
11.7632 70.5839 -175.97 -5.44093 -4.65049 -37.5877 -39.2144 -25.8226 -16.805 -1.78028 76.8601 21.2176 -18.5149 1.3797 -0.995093 0.0462048 0.000533403 0.662642 10.8616 -50.2488 15.846 78.3823 53.3806 -55.5796 -28.9878 0.369606 -1.48088 -1.31003e-009 1.56027e-007 -4.82416e-009 -5.93299 34.1637 0.131894 0.0214005 -0.0230856 0.0125913 -10.6076 -7.95401 39.5557 -1.76556e-031 -3.18055e-015 -3.18055e-015 142.869 -45.1714 169.121 -107.231 51.7298 -31.5698 6.56556 25.4739 -4.00138 5.66301 -0.030938 17.025 83.907 -21.2318 77.4006 56.2042 57.5916 70.2387 -6.672 20.2452 3.3491 
12.0813 72.3138 -175.315 -5.30049 -4.54201 -38.1674 -39.14 -24.3507 -15.7811 -3.78395 69.6531 20.9241 1.68482 1.45614 -1.26151 0.0462048 0.000533403 0.662642 14.0299 -47.1921 18.6191 69.8043 55.6818 -49.3905 -29.0749 0.036012 -1.3821 -1.31003e-009 1.56027e-007 -4.82417e-009 -5.69992 33.0308 0.431921 -0.002071 0.00683032 0.0124599 -10.904 -6.8305 39.2886 -3.18055e-015 0 9.54166e-015 145.97 -45.0875 170.172 -106.321 51.1155 -31.4888 6.16565 25.6681 -3.31551 5.79294 0.381335 17.1527 86.8285 -18.7508 81.8691 58.5509 55.5822 63.8901 -6.4077 20.5168 3.76425 
12.2826 74.0275 -174.595 -4.9946 -4.31988 -38.4502 -38.8518 -21.2722 -14.1075 -4.59163 61.9253 17.294 21.8768 1.13985 -0.786505 0.0462048 0.000533403 0.662642 17.5244 -44.0795 21.1486 59.257 58.2208 -42.3373 -28.6095 -0.142732 -1.32655 -1.31003e-009 1.56027e-007 -4.82416e-009 -4.88082 30.6568 1.90237 0.0284237 -0.0368575 0.10124 -11.7788 -4.32993 37.6823 7.06225e-031 6.36111e-015 -6.36111e-015 148.814 -46.8281 171.877 -104.844 55.0919 -35.0355 6.34829 21.8683 1.10863 5.64051 1.63406 15.7135 88.5341 -17.1245 84.7011 59.6159 54.3191 60.3789 -6.17857 20.5281 3.79278 
12.4693 75.9617 -173.484 -4.56837 -3.97028 -38.6764 -38.1948 -16.6783 -11.7434 -4.60166 54.0616 12.4147 41.6606 1.31587 -0.268351 0.0462048 0.000533403 0.662642 20.794 -41.7259 23.3585 47.8262 61.3026 -35.1315 -27.2315 -0.3079 -1.20013 -1.31003e-009 1.56027e-007 -4.82416e-009 -3.9931 27.9499 3.42561 -0.00236041 0.0197801 0.00256957 -12.5384 -1.74221 36.2744 -5.29669e-031 9.54166e-015 3.18055e-015 151.363 -48.6036 173.338 -103.239 57.0732 -37.1641 6.48974 19.818 3.35814 5.67976 2.96656 14.4707 89.4953 -16.0664 86.5149 59.941 53.5739 58.5357 -6.17218 20.4641 3.77249 
12.7353 78.224 -171.747 -4.08068 -3.57715 -38.8983 -37.2297 -10.815 -8.75429 -4.17308 45.4297 6.52531 60.9 2.0786 -0.402047 0.0462048 0.000533403 0.662642 23.3198 -38.9275 24.3392 32.4882 65.4602 -26.6982 -26.1496 -0.15617 -1.03881 -1.31003e-009 1.56027e-007 -4.82417e-009 -3.08424 25.4902 4.87291 -0.00115999 0.0229499 -0.00458054 -13.3289 0.651857 34.9441 -0 0 1.27222e-014 153.596 -50.1665 174.808 -102.003 57.8632 -38.2763 6.4647 18.4235 4.18266 5.83837 4.15498 13.2258 89.9943 -15.2229 87.6963 59.7838 53.162 57.7652 -6.41872 20.1538 3.7916 
13.4038 81.5162 -169.128 -3.57356 -3.20431 -39.1207 -34.6874 -9.76634 -6.52867 -4.26472 45.0432 3.95097 35.9347 -0.200044 1.15569 0.0462048 0.000533403 0.662642 24.5257 -35.5404 24.8969 12.816 66.6052 -14.5343 -23.98 0.0594803 -0.659475 -1.31003e-009 1.56027e-007 -4.82417e-009 -2.1912 23.3204 6.23539 -0.00115911 0.0229499 -0.00677053 -14.1212 2.81394 33.796 -1.59028e-015 -3.18055e-015 3.18055e-015 155.249 -51.4705 176.114 -101.521 58.0679 -38.4992 6.46353 17.5906 4.53709 6.00987 5.25461 11.9692 90.3009 -14.456 88.4318 59.3822 53.0743 57.6329 -6.40924 19.9597 3.3792 
13.8832 84.4496 -166.505 -3.07682 -2.89855 -39.3405 -31.6309 -8.26417 -4.79153 -3.87287 43.2688 0.990404 10.037 -2.17402 0.536612 0.0462048 0.000533403 0.662642 25.7935 -32.6276 25.2644 -1.70842 65.6678 -6.56967 -23.6785 0.188654 -0.452414 -1.31003e-009 1.56027e-007 -4.82417e-009 -1.34571 21.4499 7.49417 -0.00115911 0.0229499 -0.00677053 -14.9151 4.77715 32.858 1.59028e-015 0 6.36111e-015 156.13 -52.5713 177.135 -101.829 58.0051 -38.1024 6.61154 16.996 4.38569 6.18707 6.31367 10.6828 90.5115 -13.7572 88.797 58.8861 53.2602 57.9162 -6.61892 19.6812 3.06403 
14.0972 86.6717 -164.088 -2.62421 -2.76296 -39.5579 -31.3245 -5.50614 -3.07073 -1.75809 40.7346 -0.235753 34.8909 -1.32817 1.64469 0.0462048 0.000533403 0.662642 27.4437 -30.386 25.4568 -12.2235 64.5919 -1.70003 -24.6647 -0.00983674 -0.444488 -1.31003e-009 1.56027e-007 -4.82417e-009 -0.60654 19.9384 8.6252 -0.00115911 0.0229499 -0.00677053 -15.7183 6.58079 32.1487 7.95139e-016 -4.77083e-015 -0 156.077 -53.5193 177.816 -102.826 57.7865 -37.2749 7.05177 16.466 4.32877 6.34783 7.43692 9.31758 90.7438 -13.1102 88.9086 58.3875 53.6309 58.4454 -6.85076 19.4929 2.40873 
14.1553 88.691 -162 -2.24814 -2.78528 -39.7787 -30.347 -2.34807 -2.4525 -1.0173 35.5643 0.452657 58.2996 1.17156 0.948955 0.0462048 0.000533403 0.662642 27.9778 -30.0279 25.9288 -21.3126 65.5177 4.11935 -1.05803 -0.721105 0.419383 -1.31003e-009 1.56027e-007 -4.82416e-009 0.021095 18.7583 9.6277 -0.00115911 0.0229499 -0.00677053 -16.5137 8.24478 31.662 3.18055e-015 -3.18055e-015 -3.18055e-015 155.231 -54.3679 178.141 -104.267 57.5116 -36.2213 7.19904 16.4398 3.91215 6.48855 8.47553 7.97463 91.0094 -12.5888 88.7156 57.9331 54.1328 59.1084 -6.88098 19.4179 1.99854 
14.4671 91.1555 -159.557 -1.96659 -2.9379 -39.9999 -27.5596 -4.45158 -3.02171 1.06955 38.1131 2.21171 43.905 0.399686 0.500373 0.0462048 0.000533403 0.662642 26.2803 -28.0534 25.2713 -23.9776 62.4535 6.30164 20.7967 -0.879834 1.00741 -1.31003e-009 1.56027e-007 -4.82417e-009 0.527576 17.8759 10.5001 -0.00115911 0.0229499 -0.00677053 -17.2765 9.77252 31.3829 0 1.59028e-015 -0 153.82 -55.1383 178.163 -105.853 57.2098 -35.1127 7.48654 16.4341 3.63313 6.62266 9.40409 6.72473 91.2997 -12.2082 88.2972 57.5179 54.7027 59.8251 -6.90856 19.3788 1.44326 
